<svg width="21" height="20" viewBox="0 0 21 20" fill="none" xmlns="http://www.w3.org/2000/svg">
<path d="M17.9174 5.24608C17.9589 5.1287 17.9941 5.0092 18.0229 4.88807C18.0889 4.53601 18.1452 4.48828 18.495 4.49536C18.5535 4.49634 18.61 4.47407 18.652 4.43346C18.6703 4.41145 18.6427 4.31486 18.6088 4.29137C18.5129 4.22499 18.4078 4.14891 18.2974 4.13063C17.9908 4.08029 17.9707 4.04411 18.0855 3.76665C18.1329 3.65253 18.1228 3.51268 18.1303 3.38439C18.1489 3.07933 18.3168 2.83766 18.4883 2.60943C18.6002 2.46025 18.8299 2.55274 18.8937 2.74965C18.922 2.83766 18.9523 2.92493 18.9817 3.01257L19.0321 2.99952C18.9821 2.79142 18.9321 2.58332 18.878 2.35881C18.9489 2.35173 18.9877 2.33644 19.0175 2.34688C19.157 2.39536 19.2532 2.34688 19.3382 2.235C19.3987 2.15444 19.4591 2.10522 19.5516 2.23127C19.9154 2.71742 20.1474 3.28935 20.2251 3.89158C20.2619 4.14865 20.3149 4.40313 20.384 4.65349C20.4899 5.05924 20.4876 5.46798 20.4634 5.8976C20.3276 5.29596 20.1145 4.71444 19.8294 4.16755L19.7846 4.18396C19.8372 4.31897 19.8872 4.45471 19.942 4.5886C20.1703 5.14241 20.1408 5.6854 19.8771 6.22019C19.8503 6.27502 19.8421 6.33879 19.8178 6.3951C19.7664 6.5122 19.7705 6.65019 19.8902 6.67518C19.9674 6.69121 20.0916 6.5894 20.1598 6.51034C20.2281 6.43128 20.2422 6.31828 20.2889 6.22392C20.3203 6.16833 20.356 6.11533 20.3959 6.06542L20.4634 6.08482C20.4462 6.2243 20.438 6.36564 20.4093 6.50288C20.372 6.67853 20.3243 6.85232 20.2713 7.02499C20.2184 7.19766 20.1222 7.22899 20.0006 7.11338C19.879 6.99777 19.7328 6.90379 19.7022 6.70315C19.6866 6.60208 19.5687 6.51668 19.4971 6.42419C19.4307 6.52115 19.3595 6.61551 19.3006 6.71657C19.2811 6.7562 19.2782 6.80194 19.2924 6.84374C19.3968 7.11449 19.4229 7.41695 19.6687 7.62915C19.8458 7.78242 19.7727 7.9771 19.5448 8.04907C19.518 8.05971 19.4939 8.07607 19.474 8.097C19.4542 8.11793 19.4392 8.14294 19.43 8.17028C19.3464 8.55179 19.0291 8.62861 18.7255 8.70768C18.533 8.7522 18.3367 8.77793 18.1392 8.7845C18.0889 8.78749 17.9964 8.72782 17.9875 8.68381C17.9479 8.5024 17.9249 8.31779 17.9185 8.13224C17.9088 7.74401 17.9155 7.35578 17.9155 6.96607C18.1765 6.94369 18.2396 6.86798 18.1765 6.59313C18.1281 6.38466 18.0606 6.18066 17.9867 5.92483L17.7342 6.46372C17.6473 6.35781 17.5634 6.28919 17.5235 6.20267C17.4116 5.96063 17.2998 5.71561 17.2315 5.46052C17.1916 5.31135 17.2248 5.14166 17.2446 4.98316C17.249 4.94587 17.3274 4.89441 17.377 4.88769C17.5511 4.86308 17.7361 4.991 17.8051 5.16478C17.8185 5.19109 17.8343 5.21607 17.8525 5.23937L17.9174 5.24608ZM19.5381 3.85615L19.5971 3.81364C19.4931 3.66919 19.3892 3.52498 19.2853 3.38103L19.2264 3.42355C19.3298 3.5675 19.4337 3.7117 19.5381 3.85615Z" fill="white"/>
<path d="M16.7896 3.70572C16.8198 3.44466 16.8287 3.24291 16.8701 3.0501C16.8957 2.94246 16.9494 2.84352 17.0256 2.76331C17.2494 2.52799 17.4358 2.27849 17.5477 1.96299C17.6529 1.66017 17.8871 1.45319 18.2351 1.46064C18.332 1.46064 18.4588 1.51733 18.5129 1.59117C18.5476 1.63742 18.4995 1.78137 18.4476 1.85223C18.2768 2.08046 18.2019 2.34376 18.0986 2.60257C17.8897 3.12469 17.924 3.68409 17.779 4.21403C17.7469 4.33113 17.6525 4.51462 17.5753 4.52059C17.3467 4.53849 17.0659 4.56683 16.9492 4.29011C16.8626 4.08723 16.8306 3.86347 16.7896 3.70572Z" fill="white"/>
<path d="M16.5811 14.1401C16.5595 14.2729 16.5628 14.3669 16.5278 14.443C16.432 14.664 16.3218 14.8784 16.1977 15.0848C16.1179 15.2116 15.9829 15.3022 15.8863 15.4204C15.7444 15.5899 15.6122 15.7672 15.4902 15.9515C15.3541 16.1637 15.2538 16.399 15.1102 16.6064C15.0095 16.7507 14.8689 16.8704 14.7336 16.9864C14.5341 17.1614 14.3257 17.3259 14.1093 17.4794C14.003 17.554 13.8586 17.5704 13.7438 17.6345C13.6487 17.6879 13.5271 17.7565 13.4947 17.8464C13.3988 18.1123 13.1363 18.0828 12.9528 18.1887C12.9498 18.1906 12.8629 18.0895 12.8745 18.0679C12.967 17.8829 13.0723 17.7046 13.1896 17.5342C13.655 16.8917 14.2894 16.4177 14.8548 15.8739C15.1792 15.5621 15.4757 15.2209 15.7871 14.895C16.0083 14.663 16.2324 14.434 16.4565 14.205C16.4718 14.1894 16.4961 14.183 16.5811 14.1401Z" fill="white"/>
<path d="M1.43171 3.54224C1.50182 3.54783 1.54135 3.53888 1.56261 3.55492C1.74647 3.6929 1.93368 3.82791 2.10598 3.97969C2.17422 4.04011 2.14327 4.1091 2.04817 4.14826C1.75728 4.26909 1.47049 4.40036 1.1796 4.52119C0.993135 4.59914 0.730215 4.43467 0.655255 4.2001C0.587381 3.98827 0.692549 3.82455 0.92004 3.75705C1.03789 3.72199 1.14753 3.65934 1.26128 3.61086C1.3284 3.58214 1.39628 3.55641 1.43171 3.54224Z" fill="white"/>
<path d="M15.5433 17.6868C15.3427 17.9657 15.1419 18.2447 14.941 18.5236C14.7881 18.7355 14.6471 18.9574 14.4771 19.1543C14.3288 19.3197 14.1648 19.4703 13.9874 19.604C13.9072 19.6663 13.8162 19.6413 13.8252 19.5037C13.8308 19.4176 13.83 19.3311 13.839 19.2453C13.8584 19.0588 13.8599 18.8925 14.0877 18.7791C14.3085 18.6698 14.47 18.4435 14.6654 18.2797C14.9048 18.0784 15.1502 17.8856 15.3979 17.6916C15.4329 17.6713 15.4705 17.6558 15.5097 17.6458L15.5433 17.6868Z" fill="white"/>
<path d="M15.6167 16.7516C15.5048 16.9112 15.4235 17.0428 15.3288 17.1659C15.2005 17.3322 15.0677 17.4948 14.9267 17.6507C14.8999 17.6809 14.8369 17.6791 14.7906 17.6921C14.7712 17.6198 14.7134 17.5273 14.7392 17.4788C14.816 17.3334 14.9066 17.1846 15.0271 17.076C15.1658 16.9511 15.3414 16.8672 15.5026 16.7676C15.5201 16.7579 15.5469 16.7617 15.6167 16.7516Z" fill="white"/>
<path d="M1.50647 5.62725L1.57696 5.40759C1.65434 5.43122 1.72987 5.46052 1.80295 5.49523C1.88793 5.54446 1.96819 5.60138 2.04275 5.66529C2.07632 5.69363 2.11734 5.74659 2.111 5.7809C2.10466 5.81521 2.04872 5.8484 2.00732 5.86519C1.95015 5.88689 1.89032 5.90081 1.82943 5.90658C1.56875 5.93418 1.52176 5.89092 1.50647 5.62725Z" fill="white"/>
<path d="M3.09204 5.40301C3.14873 5.20722 3.20392 5.01851 3.258 4.8313C3.46125 4.86188 3.63877 5.01777 3.6287 5.14456C3.61415 5.33812 3.45715 5.4183 3.09204 5.40301Z" fill="white"/>
<path d="M2.75623 5.52771C2.87967 5.54822 2.96805 5.54934 3.04413 5.57992C3.0697 5.59229 3.09224 5.61013 3.11015 5.63217C3.12807 5.65421 3.14092 5.67991 3.14781 5.70747C3.15303 5.74103 3.09224 5.81599 3.05681 5.81935C2.96992 5.8268 2.8558 5.83128 2.80023 5.78205C2.75287 5.7373 2.77002 5.62057 2.75623 5.52771Z" fill="white"/>
<path d="M2.38037 5.05947C2.41244 4.93118 2.42363 4.80066 2.58474 4.78723C2.59593 4.78723 2.63509 4.86965 2.62203 4.89911C2.58511 4.99496 2.58698 5.16203 2.38037 5.05947Z" fill="white"/>
<path d="M3.71319 10.3667L3.9597 10.4939C3.93845 10.5245 3.92241 10.577 3.89481 10.5815C3.771 10.6031 3.69902 10.5457 3.71319 10.3667Z" fill="white"/>
<path d="M9.12209 2.87976C9.06055 2.79921 9.00722 2.74588 9.01431 2.73581C9.07904 2.64775 9.15022 2.5646 9.22725 2.48706C9.26171 2.50722 9.293 2.53235 9.32011 2.56165C9.2679 2.656 9.20823 2.74737 9.12209 2.87976Z" fill="white"/>
<path fill-rule="evenodd" clip-rule="evenodd" d="M0.302022 1.54572C0.274353 1.59869 0.250142 1.65352 0.229582 1.70986C0.195444 1.81669 0.186213 1.93129 0.176966 2.04609C0.172172 2.10561 0.167373 2.16519 0.159096 2.22377C0.137839 2.37742 0.248974 2.59036 0.413812 2.61237C0.488772 2.62243 0.602891 2.51876 0.660696 2.43895C0.817329 2.22339 1.06421 2.14582 1.28275 2.11785C1.52272 2.08698 1.77156 2.11683 2.01879 2.14649C2.08816 2.15481 2.1574 2.16312 2.22628 2.17006C2.46906 2.19505 2.68872 2.42925 2.76331 2.67987C2.7827 2.7455 2.8696 2.80219 2.93747 2.83948C2.9771 2.86228 3.0222 2.87793 3.06693 2.89344C3.13122 2.91574 3.19477 2.93779 3.2403 2.98045C3.62666 3.34108 3.80194 3.81993 3.9444 4.31072C3.99593 4.47496 4.01741 4.64716 4.0078 4.81903C3.97572 5.18955 3.92818 5.55874 3.88064 5.92796C3.86683 6.03517 3.85303 6.14237 3.8396 6.24961C3.83126 6.31597 3.82395 6.38277 3.81664 6.44966C3.79517 6.64593 3.7736 6.84309 3.72548 7.03278C3.69143 7.16673 3.63739 7.29542 3.58327 7.4243C3.53959 7.5283 3.49587 7.63241 3.46257 7.73949C3.4273 7.8535 3.40474 7.97148 3.38216 8.08957C3.36271 8.1913 3.34324 8.2931 3.31563 8.39251C3.24514 8.64722 3.33689 8.91723 3.57482 9.00673C3.80468 9.09406 4.04955 9.13507 4.29533 9.12739C4.5411 9.11971 4.78293 9.06349 5.00689 8.96198C5.19864 8.87051 5.41132 8.83189 5.62298 8.8501C5.66234 8.85355 5.70113 8.86643 5.73981 8.87927C5.7847 8.89417 5.82944 8.90902 5.87472 8.90902C6.32256 8.9167 6.76468 9.01105 7.17664 9.18686C7.2777 9.22826 7.46231 9.19022 7.54957 9.11638C7.63684 9.04253 7.70397 8.86166 7.67413 8.75836C7.62646 8.59354 7.67555 8.46989 7.72681 8.34078C7.73609 8.3174 7.74545 8.29383 7.75432 8.26981C7.76331 8.27185 7.77136 8.27295 7.7782 8.27389C7.79009 8.27551 7.79836 8.27664 7.80168 8.28137C8.05565 8.6379 8.24584 9.00673 8.13023 9.47178C8.11214 9.55896 8.07631 9.64148 8.02499 9.71423C7.97367 9.78698 7.90794 9.84841 7.83188 9.89469C7.66257 9.99688 7.48468 10.1035 7.29821 10.1531C7.13948 10.1948 6.97004 10.1978 6.80186 10.2007C6.75944 10.2014 6.7171 10.2021 6.67504 10.2035C6.65132 10.1996 6.62896 10.1898 6.61 10.175C6.59104 10.1602 6.57609 10.1409 6.56651 10.1188C6.55793 10.0875 6.59784 10.0275 6.63252 10.0032C6.70626 9.94663 6.78828 9.90172 6.87568 9.87008C6.87806 9.86933 6.88043 9.86859 6.8828 9.86785C6.99028 9.83415 7.08442 9.80464 7.04574 9.66123C7.0142 9.54415 6.93013 9.55358 6.84778 9.56282C6.83177 9.56462 6.81583 9.56641 6.80034 9.56726C6.73716 9.57066 6.67395 9.57392 6.61074 9.57717C6.39004 9.58854 6.16926 9.59992 5.94893 9.6176C5.83285 9.63338 5.71779 9.65592 5.60434 9.6851C5.61425 9.72027 5.62672 9.75467 5.64163 9.78803C5.78745 10.0237 5.77738 10.0342 5.56369 10.2031C5.52973 10.2315 5.50196 10.2666 5.48208 10.3062C5.46219 10.3458 5.45062 10.389 5.44808 10.4332C5.45252 10.5324 5.47517 10.6306 5.49787 10.729C5.51136 10.7875 5.52487 10.8461 5.5346 10.905C5.5663 11.0982 5.47195 11.1735 5.28958 11.1459C5.19104 11.1319 5.09076 11.154 5.00727 11.2082C4.91291 11.2779 4.89651 11.3965 4.98079 11.5065C4.99609 11.5332 5.00538 11.5628 5.00801 11.5934C5.02397 11.6699 5.03891 11.7468 5.05386 11.8237C5.08675 11.9929 5.11967 12.1623 5.16353 12.3285C5.19784 12.4586 5.28511 12.5724 5.44472 12.5452C5.59763 12.5194 5.74755 12.4616 5.70279 12.2584C5.66082 12.0561 5.60575 11.8568 5.53796 11.6617C5.47605 11.4901 5.58345 11.4092 5.69198 11.3503C5.82357 11.2789 5.88958 11.393 5.94666 11.4916L5.94819 11.4942C5.95829 11.5116 5.96845 11.529 5.97861 11.5464C6.02097 11.6188 6.06341 11.6914 6.10221 11.7657C6.11989 11.7989 6.13972 11.8319 6.15958 11.865C6.21385 11.9553 6.26836 12.0461 6.2801 12.1416C6.30508 12.349 6.40652 12.3732 6.58106 12.3654C7.09084 12.3426 7.60062 12.3307 8.11074 12.3188L8.15895 12.3177C8.22301 12.316 8.28761 12.3199 8.35213 12.3238C8.44911 12.3297 8.54591 12.3355 8.64041 12.3225C8.88451 12.2844 9.12649 12.2337 9.3654 12.1707C9.43444 12.1538 9.50153 12.129 9.56866 12.1041C9.6259 12.0829 9.68316 12.0617 9.74169 12.0454C9.9304 11.9932 10.1202 11.9447 10.3123 11.9074C10.3524 11.8997 10.3976 11.9149 10.4421 11.9299C10.4579 11.9352 10.4737 11.9405 10.4891 11.9447C10.6282 11.9824 10.7673 12.0204 10.9053 12.0622C10.9261 12.0685 10.9482 12.0739 10.9704 12.0794C11.0365 12.0956 11.104 12.1122 11.1462 12.1532C11.3498 12.3501 11.5363 12.5601 11.7227 12.7723C11.7366 12.7949 11.7449 12.8204 11.7471 12.8468C11.7493 12.8733 11.7453 12.8998 11.7354 12.9244C11.7168 12.9617 11.6459 13.0072 11.6086 12.999C11.4758 12.9694 11.3473 12.9301 11.2185 12.8908C11.1788 12.8787 11.1391 12.8665 11.0992 12.8547C11.0483 12.833 10.9955 12.8163 10.9414 12.8047C10.6075 12.7656 10.2699 12.8359 9.97925 13.005C9.86556 13.0763 9.74437 13.135 9.61788 13.1799C9.30573 13.2787 8.99918 13.3839 8.73066 13.58C8.66726 13.6267 8.58634 13.6789 8.51436 13.677C8.33013 13.6729 8.17872 13.7158 8.10413 13.8941C8.04051 14.0514 7.98939 14.2135 7.95122 14.3789C7.94153 14.4203 7.98665 14.4833 8.02022 14.5247C8.15858 14.694 8.35586 14.7197 8.54457 14.6761C8.68255 14.6444 8.73924 14.6858 8.75714 14.7977C8.7789 14.9506 8.79247 15.1046 8.79779 15.259C8.80562 15.4003 8.73663 15.4727 8.59118 15.4917C8.48197 15.5062 8.37566 15.5375 8.27605 15.5846C8.15324 15.639 8.03893 15.7108 7.93668 15.7979C7.90572 15.826 7.85933 15.8442 7.81261 15.8626C7.69611 15.9084 7.57752 15.955 7.69092 16.157C7.65973 16.1718 7.62383 16.1816 7.58824 16.1913C7.48467 16.2194 7.38372 16.2469 7.40898 16.3953C7.44068 16.5799 7.3329 16.637 7.19939 16.659C7.00397 16.6911 6.99241 16.7925 7.04126 16.9521C7.09174 17.1164 7.13909 17.2817 7.18646 17.447C7.22868 17.5944 7.2709 17.7418 7.31537 17.8886C7.32176 17.91 7.34585 17.9263 7.36998 17.9425C7.38105 17.95 7.39213 17.9574 7.40152 17.9654C7.41053 17.9521 7.42202 17.939 7.43352 17.9258C7.45818 17.8976 7.48282 17.8694 7.48282 17.8401C7.48766 17.708 7.48848 17.5757 7.4893 17.4435C7.49005 17.3212 7.49081 17.1989 7.49475 17.0767C7.49602 17.0403 7.51548 17.0047 7.53495 16.969C7.54404 16.9524 7.55314 16.9357 7.56039 16.9189C7.60857 16.9495 7.65489 16.9829 7.69912 17.0189C7.74143 17.0576 7.7823 17.098 7.82313 17.1383C7.89601 17.2103 7.96875 17.2822 8.04931 17.3441C8.1321 17.406 8.16939 17.4549 8.1321 17.5582C8.04185 17.8069 8.06646 17.8494 8.33386 17.8897C8.43215 17.9003 8.53137 17.8985 8.62922 17.8845C8.72537 17.8756 8.82127 17.864 8.91714 17.8524C9.05854 17.8354 9.19989 17.8183 9.3419 17.8099C9.38673 17.807 9.43231 17.8304 9.47886 17.8542C9.50512 17.8677 9.53168 17.8813 9.55858 17.8904C9.58239 17.8987 9.60833 17.9103 9.63455 17.922C9.70154 17.952 9.77037 17.9827 9.81031 17.9613C9.95352 17.8852 10.1038 17.7842 10.1918 17.6533C10.275 17.5294 10.3444 17.5183 10.4764 17.5261C10.6323 17.535 10.7934 17.503 10.9478 17.4686C11.02 17.4528 11.0889 17.4211 11.1577 17.3895C11.1908 17.3742 11.2239 17.359 11.2573 17.3456C11.2927 17.3312 11.3338 17.32 11.3749 17.3087C11.4642 17.2843 11.5533 17.2599 11.5821 17.2042C11.6608 17.0521 11.7686 16.9693 11.9077 16.8947C11.981 16.8487 12.0412 16.7844 12.0822 16.7082C12.1285 16.628 12.1285 16.5434 12.0166 16.496C11.7928 16.4028 11.7809 16.3562 11.9525 16.179C11.997 16.1333 12.0591 16.1035 12.1206 16.0739C12.1414 16.0638 12.1622 16.0538 12.1822 16.0433C12.2484 16.0082 12.3154 15.9741 12.3824 15.94C12.467 15.8969 12.5517 15.8539 12.6349 15.8087C12.6793 15.7846 12.7223 15.7575 12.7652 15.7303C12.8373 15.6847 12.9093 15.6392 12.9874 15.6088C13.0136 15.5986 13.04 15.5887 13.0663 15.5789C13.2606 15.5064 13.4518 15.435 13.5468 15.2176C13.5557 15.1965 13.5767 15.1815 13.5978 15.1665C13.6084 15.1589 13.619 15.1514 13.6281 15.143C13.6654 15.109 13.7034 15.0754 13.7413 15.0419C13.8351 14.9589 13.9289 14.8759 14.0144 14.7854C14.1017 14.6929 14.1584 14.6966 14.2057 14.8085C14.2327 14.8723 14.2549 14.9381 14.2804 15.0137C14.2926 15.05 14.3056 15.0884 14.3202 15.13C14.4194 14.8223 14.5597 14.5777 14.8207 14.418C14.8353 14.4067 14.8472 14.3923 14.8557 14.3759C14.8642 14.3595 14.8691 14.3414 14.8699 14.3229C14.8724 14.1747 14.9712 14.0943 15.069 14.0149C15.076 14.0092 15.083 14.0035 15.09 13.9977C15.1127 13.9791 15.1373 13.9605 15.1622 13.9416C15.2511 13.8744 15.3443 13.8039 15.3734 13.7151C15.4463 13.4985 15.4923 13.2734 15.5383 13.0478C15.5533 12.9745 15.5682 12.9013 15.5841 12.8282C15.5902 12.801 15.5902 12.773 15.5901 12.7451C15.5901 12.7167 15.59 12.6886 15.5964 12.6615C15.6175 12.5728 15.6404 12.4843 15.6634 12.3958C15.7453 12.0797 15.8274 11.7626 15.8254 11.4308C15.8235 11.0724 15.8157 10.7137 15.7974 10.356C15.7948 10.3083 15.7225 10.2531 15.6703 10.2214C15.5513 10.1487 15.4655 10.0726 15.4894 9.91073C15.4981 9.85125 15.4827 9.78818 15.4695 9.73403C15.4641 9.71213 15.4591 9.69169 15.4562 9.67354H15.1545C15.1619 9.64468 15.169 9.61571 15.1761 9.58673C15.1912 9.52546 15.2062 9.46417 15.2242 9.40391C15.2419 9.34514 15.2667 9.28543 15.2915 9.22579C15.3447 9.09807 15.3977 8.97065 15.3801 8.85346C15.3557 8.69113 15.2764 8.53715 15.197 8.38293C15.1613 8.31358 15.1256 8.24419 15.0948 8.17397C15.0847 8.15086 15.0732 8.12772 15.0617 8.10453C15.0302 8.04126 14.9986 7.97759 14.9945 7.91291C14.9725 7.55601 14.9617 7.19836 14.9572 6.84072C14.9556 6.73029 14.9615 6.61966 14.9673 6.50899C14.9725 6.41071 14.9777 6.31241 14.9777 6.21419C14.9777 6.18887 14.9781 6.16302 14.9785 6.13694C14.9804 6.01283 14.9825 5.88346 14.9341 5.78083C14.8647 5.63315 14.886 5.54998 15.002 5.46122C15.1179 5.37247 15.1672 5.26282 15.1851 5.11365C15.201 4.98088 15.2356 4.8506 15.2702 4.72023C15.2858 4.66164 15.3013 4.60303 15.3152 4.54418C15.3227 4.52173 15.3247 4.49779 15.3208 4.47443C15.3008 4.40718 15.2794 4.34015 15.258 4.27316C15.2402 4.21756 15.2225 4.16199 15.2056 4.10635C15.1094 3.79271 15.2045 3.4593 15.4349 3.37987C15.5558 3.3381 15.583 3.27768 15.5886 3.1658C15.5947 3.04687 15.6048 2.92822 15.6149 2.80957C15.6252 2.68824 15.6355 2.56691 15.6415 2.44529C15.6432 2.40883 15.6277 2.37175 15.6121 2.33445C15.6036 2.31413 15.5951 2.29375 15.5893 2.27337C15.5819 2.24693 15.5733 2.22052 15.5647 2.1941C15.5432 2.12772 15.5216 2.06126 15.5181 1.99404C15.5164 1.96249 15.5149 1.93096 15.5134 1.89946C15.5071 1.77052 15.5009 1.64228 15.4841 1.51681C14.9539 1.14759 14.0375 0.697753 12.4954 0.381088H11.9677C12.1 0.52359 12.1939 0.697334 12.2407 0.886044C12.2581 0.94969 12.3274 0.999252 12.405 1.05476C12.4424 1.08154 12.4818 1.10971 12.5182 1.14151C12.5008 1.14949 12.4825 1.16017 12.4647 1.17058C12.4259 1.19325 12.3892 1.21464 12.369 1.20416C12.2456 1.14076 12.1165 1.07288 12.0196 0.976294C11.8834 0.842495 11.7577 0.696791 11.632 0.551031C11.5826 0.493654 11.5331 0.436268 11.4829 0.379596H8.42485C8.34656 0.40779 8.26816 0.435803 8.18975 0.463819C7.97051 0.542159 7.7512 0.620522 7.53391 0.702932C7.48915 0.719957 7.4477 0.746317 7.40636 0.772603C7.35987 0.802169 7.31352 0.83164 7.26279 0.847631L7.24605 0.852926C7.04745 0.915768 6.84567 0.979618 6.64036 1.00501C6.50865 1.02136 6.3749 1.02012 6.24105 1.01888C6.14598 1.018 6.05086 1.01712 5.95639 1.02254C5.92853 1.02406 5.90308 1.04934 5.87685 1.0754C5.85815 1.09398 5.83905 1.11295 5.8184 1.12398L5.81704 1.12471C5.76749 1.15116 5.69646 1.18908 5.65692 1.17171C5.60397 1.14859 5.53236 1.07102 5.53833 1.02627C5.55329 0.916053 6.05617 0.56601 6.55341 0.219898C6.66013 0.145615 6.76659 0.0715113 6.8679 0C2.97644 0.126365 1.13393 0.950699 0.302022 1.54572ZM10.071 2.21743C10.1395 2.22563 10.2086 2.22937 10.2776 2.22861L10.024 1.95488L10.0486 1.91125L10.9149 2.20959C10.9205 2.21183 10.9299 2.21556 10.9299 2.22041C10.9475 2.27433 10.9661 2.32805 10.9846 2.38176C11.0317 2.51789 11.0788 2.65402 11.1104 2.79361C11.1245 2.85482 11.1117 2.92232 11.0977 2.99646C11.0909 3.03209 11.0839 3.06926 11.0794 3.108C10.771 3.28589 10.5107 3.24859 10.269 2.96516C10.1769 2.85664 10.0848 2.85328 9.98149 2.94279C9.97862 2.94522 9.97539 2.94769 9.97205 2.95025C9.96103 2.95868 9.94877 2.96807 9.94419 2.98008C9.84529 3.24567 9.61244 3.31444 9.38517 3.38156C9.35107 3.39163 9.3171 3.40166 9.28373 3.41231C9.17735 3.44258 9.06344 3.43111 8.96524 3.38024C8.79077 3.27561 8.6295 3.1504 8.4849 3.0073C8.36966 2.89468 8.2671 2.87305 8.14142 2.96069C7.97286 3.07891 7.81212 3.20459 7.78639 3.43469C7.76859 3.5665 7.80312 3.70004 7.88259 3.80669C7.96206 3.91335 8.08014 3.98464 8.21153 4.00528C8.23973 4.01429 8.26667 4.02682 8.29172 4.04258C8.12501 4.2544 7.97285 4.27305 7.73231 4.10821C7.71991 4.09974 7.7079 4.09125 7.69614 4.08293C7.58834 4.00673 7.50177 3.94553 7.33364 4.05078C7.10317 4.19511 6.92938 4.056 6.92341 3.78488C6.92178 3.71203 6.91755 3.63911 6.91333 3.56619C6.90793 3.47297 6.90253 3.37975 6.90253 3.28663C6.90247 3.22029 6.91915 3.155 6.95101 3.09681C6.98028 3.04592 7.01608 2.99887 7.05191 2.95177C7.08409 2.90947 7.11629 2.86713 7.14382 2.82195C7.42762 2.3569 7.85053 2.08242 8.35996 1.92467C8.37162 1.9211 8.38601 1.92619 8.40653 1.93343C8.41817 1.93755 8.43178 1.94235 8.44798 1.94667L8.23764 2.13314C8.23932 2.14357 8.2409 2.1539 8.24248 2.16423C8.24407 2.1746 8.24565 2.18496 8.24734 2.19542C8.29736 2.19752 8.34756 2.20139 8.39778 2.20526C8.50855 2.2138 8.61937 2.22235 8.72842 2.21183L8.74286 2.21045C9.18557 2.16801 9.62828 2.12556 10.071 2.21743Z" fill="white"/>
</svg>
